<svg width="21" height="19" viewBox="0 0 21 19" fill="none" xmlns="http://www.w3.org/2000/svg">
<path d="M3.51369 0.777222C3.9346 0.777222 4.29695 1.06588 4.37748 1.46486C4.40884 1.71633 4.62258 1.90507 4.876 1.90507H19.8304C20.5734 1.90507 21.1663 2.61879 20.9577 3.33814L18.9813 10.1066C18.8385 10.593 18.3773 10.9279 17.854 10.9279H7.27863C6.74515 10.9279 6.34488 11.4157 6.44902 11.9389C6.52778 12.3346 6.87512 12.6196 7.27863 12.6196H17.8613C18.3481 12.6196 18.7397 12.9968 18.7397 13.4655C18.7397 13.9343 18.3481 14.3114 17.8613 14.3114H5.82321C5.43524 14.3114 5.07289 14.0224 4.99237 13.6241L3.15695 4.34113C2.94183 3.25312 1.9875 2.46899 0.878423 2.46899C0.39346 2.46899 0 2.09011 0 1.62311C0 1.15611 0.39346 0.777222 0.878423 0.777222H3.51369ZM4.68492 17.131C4.68492 16.197 5.47184 15.4392 6.44177 15.4392C7.4117 15.4392 8.19862 16.197 8.19862 17.131C8.19862 18.065 7.4117 18.8228 6.44177 18.8228C5.47184 18.8228 4.68492 18.065 4.68492 17.131ZM18.7397 17.131C18.7397 18.065 17.9528 18.8228 16.9828 18.8228C16.0129 18.8228 15.226 18.065 15.226 17.131C15.226 16.197 16.0129 15.4392 16.9828 15.4392C17.9528 15.4392 18.7397 16.197 18.7397 17.131Z" fill="#A01326" fill-opacity="0.97"/>
</svg>
