<svg width="278" height="49" viewBox="0 0 278 49" fill="none" xmlns="http://www.w3.org/2000/svg">
<path d="M31.6953 21.7539C31.0833 22.7435 30.2565 23.7266 29.2148 24.7031C28.1732 25.6667 26.9818 26.5391 25.6406 27.3203C24.3125 28.0885 22.8607 28.707 21.2852 29.1758C19.7096 29.6576 18.082 29.8984 16.4023 29.8984C15.0872 29.8984 13.7721 29.7812 12.457 29.5469C11.1549 29.3125 9.89844 28.9544 8.6875 28.4727C7.48958 27.9909 6.36979 27.3854 5.32812 26.6562C4.29948 25.9141 3.40104 25.0417 2.63281 24.0391C1.86458 23.0365 1.25911 21.8971 0.816406 20.6211C0.386719 19.3451 0.171875 17.9258 0.171875 16.3633C0.171875 14.8398 0.393229 13.3945 0.835938 12.0273C1.29167 10.6602 1.92318 9.39714 2.73047 8.23828C3.53776 7.06641 4.49479 6.01172 5.60156 5.07422C6.70833 4.13672 7.91927 3.34245 9.23438 2.69141C10.5495 2.02734 11.9362 1.51953 13.3945 1.16797C14.8529 0.816406 16.3438 0.640625 17.8672 0.640625C19.5469 0.640625 21.1224 0.842448 22.5938 1.24609C24.0781 1.63672 25.3737 2.19661 26.4805 2.92578C27.5872 3.64193 28.4596 4.50781 29.0977 5.52344C29.7487 6.52604 30.0742 7.64583 30.0742 8.88281C30.0742 10.0286 29.8073 11.1224 29.2734 12.1641C28.7396 13.1927 28.0039 14.0977 27.0664 14.8789C26.1419 15.6602 25.0547 16.2786 23.8047 16.7344C22.5677 17.1901 21.2461 17.418 19.8398 17.418C18.707 17.418 17.7044 17.2812 16.832 17.0078C15.9596 16.7214 15.2305 16.3307 14.6445 15.8359C14.0586 15.3411 13.6159 14.7617 13.3164 14.0977C13.0169 13.4336 12.8672 12.7174 12.8672 11.9492C12.8672 11.3112 12.9648 10.7318 13.1602 10.2109C13.3685 9.67708 13.5898 9.22135 13.8242 8.84375C14.0716 8.46615 14.2995 8.17318 14.5078 7.96484C14.7292 7.74349 14.8529 7.61979 14.8789 7.59375C14.944 7.52865 15.0156 7.48958 15.0938 7.47656C15.1849 7.45052 15.2695 7.4375 15.3477 7.4375C15.556 7.4375 15.7318 7.5026 15.875 7.63281C16.0182 7.76302 16.0898 7.93229 16.0898 8.14062C16.0898 8.375 16.0052 8.57031 15.8359 8.72656C15.8099 8.73958 15.7188 8.83073 15.5625 9C15.4062 9.15625 15.237 9.3776 15.0547 9.66406C14.8724 9.9375 14.7031 10.2695 14.5469 10.6602C14.4036 11.0508 14.332 11.4805 14.332 11.9492C14.332 12.6914 14.4948 13.3164 14.8203 13.8242C15.1589 14.332 15.5951 14.7487 16.1289 15.0742C16.6628 15.3867 17.2552 15.6146 17.9062 15.7578C18.5573 15.888 19.2083 15.9531 19.8594 15.9531C21.0703 15.9531 22.2031 15.7578 23.2578 15.3672C24.3255 14.9766 25.2565 14.4557 26.0508 13.8047C26.8451 13.1536 27.4701 12.4049 27.9258 11.5586C28.3815 10.7122 28.6094 9.82682 28.6094 8.90234C28.6094 7.88672 28.3229 6.96224 27.75 6.12891C27.1771 5.28255 26.4023 4.56641 25.4258 3.98047C24.4492 3.38151 23.3034 2.91927 21.9883 2.59375C20.6862 2.26823 19.293 2.10547 17.8086 2.10547C16.6888 2.10547 15.5104 2.24219 14.2734 2.51562C13.0495 2.77604 11.8385 3.17318 10.6406 3.70703C9.44271 4.24089 8.29688 4.90495 7.20312 5.69922C6.1224 6.49349 5.17188 7.42448 4.35156 8.49219C3.53125 9.54688 2.8737 10.7318 2.37891 12.0469C1.89714 13.362 1.65625 14.8008 1.65625 16.3633C1.65625 17.7826 1.85156 19.0651 2.24219 20.2109C2.64583 21.3568 3.19922 22.3789 3.90234 23.2773C4.60547 24.1628 5.42578 24.931 6.36328 25.582C7.3138 26.2331 8.32943 26.7734 9.41016 27.2031C10.5039 27.6198 11.6432 27.9323 12.8281 28.1406C14.013 28.3359 15.1914 28.4336 16.3633 28.4336C17.9258 28.4336 19.4297 28.2188 20.875 27.7891C22.3203 27.3464 23.6549 26.7734 24.8789 26.0703C26.1159 25.3542 27.2096 24.5534 28.1602 23.668C29.1107 22.7826 29.8659 21.8906 30.4258 20.9922C30.4909 20.875 30.582 20.7904 30.6992 20.7383C30.8164 20.6732 30.9401 20.6406 31.0703 20.6406C31.2917 20.6406 31.4674 20.7188 31.5977 20.875C31.7279 21.0182 31.793 21.181 31.793 21.3633C31.793 21.4284 31.7865 21.4935 31.7734 21.5586C31.7604 21.6237 31.7344 21.6888 31.6953 21.7539ZM44.8398 23.5898C44.6966 23.8893 44.5143 24.2474 44.293 24.6641C44.0846 25.0677 43.8438 25.4909 43.5703 25.9336C43.2969 26.3763 42.9909 26.819 42.6523 27.2617C42.3138 27.6914 41.9427 28.082 41.5391 28.4336C41.1484 28.7721 40.7253 29.0456 40.2695 29.2539C39.8268 29.4753 39.3516 29.5859 38.8438 29.5859C38.0625 29.5859 37.3919 29.3451 36.832 28.8633C36.2721 28.3815 35.7969 27.75 35.4062 26.9688C35.0156 26.1875 34.6966 25.3021 34.4492 24.3125C34.2148 23.3099 34.0326 22.2943 33.9023 21.2656C33.7721 20.224 33.681 19.2148 33.6289 18.2383C33.5898 17.2617 33.5703 16.3958 33.5703 15.6406C33.5703 14.5469 33.6029 13.4141 33.668 12.2422C33.7461 11.0703 33.8633 9.92448 34.0195 8.80469C34.1758 7.6849 34.3711 6.6237 34.6055 5.62109C34.8529 4.61849 35.1393 3.73958 35.4648 2.98438C35.8034 2.22917 36.1875 1.63021 36.6172 1.1875C37.0469 0.744792 37.5352 0.523438 38.082 0.523438C38.5117 0.523438 38.8958 0.627604 39.2344 0.835938C39.5859 1.03125 39.8789 1.35677 40.1133 1.8125C40.3477 2.26823 40.5299 2.86068 40.6602 3.58984C40.7904 4.31901 40.8555 5.21094 40.8555 6.26562C40.8555 7.56771 40.7188 8.91536 40.4453 10.3086C40.1719 11.6888 39.8008 13.082 39.332 14.4883C38.8633 15.8945 38.3099 17.3008 37.6719 18.707C37.0339 20.1003 36.3503 21.4609 35.6211 22.7891C35.9466 24.4427 36.3828 25.7448 36.9297 26.6953C37.4766 27.6328 38.1341 28.1016 38.9023 28.1016C39.4232 28.1016 39.9245 27.8997 40.4062 27.4961C40.888 27.0794 41.3307 26.5911 41.7344 26.0312C42.138 25.4714 42.4896 24.9049 42.7891 24.332C43.1016 23.7461 43.3424 23.2773 43.5117 22.9258C43.5768 22.7956 43.668 22.6979 43.7852 22.6328C43.9023 22.5547 44.0326 22.5156 44.1758 22.5156C44.3971 22.5156 44.5729 22.5938 44.7031 22.75C44.8464 22.9062 44.918 23.082 44.918 23.2773C44.918 23.3555 44.8919 23.4596 44.8398 23.5898ZM35.0547 15.7383C35.0547 16.5716 35.0742 17.3724 35.1133 18.1406C35.1523 18.9089 35.2044 19.6445 35.2695 20.3477C35.8164 19.293 36.3372 18.1732 36.832 16.9883C37.3268 15.7904 37.763 14.5859 38.1406 13.375C38.5182 12.151 38.8177 10.9401 39.0391 9.74219C39.2734 8.53125 39.3906 7.37891 39.3906 6.28516C39.3906 4.7487 39.2669 3.64844 39.0195 2.98438C38.7721 2.32031 38.4401 1.98828 38.0234 1.98828C37.75 1.98828 37.4831 2.17708 37.2227 2.55469C36.9753 2.93229 36.7409 3.44661 36.5195 4.09766C36.2982 4.7487 36.0964 5.51693 35.9141 6.40234C35.7318 7.28776 35.5755 8.23828 35.4453 9.25391C35.3281 10.2695 35.2305 11.3307 35.1523 12.4375C35.0872 13.5443 35.0547 14.6445 35.0547 15.7383ZM58.6289 23.5508C58.5768 23.6549 58.4661 23.8763 58.2969 24.2148C58.1406 24.5404 57.9323 24.918 57.6719 25.3477C57.4245 25.7773 57.1315 26.2266 56.793 26.6953C56.4544 27.1641 56.0768 27.5938 55.6602 27.9844C55.2435 28.375 54.7943 28.7005 54.3125 28.9609C53.8307 29.2083 53.3229 29.332 52.7891 29.332C52.0339 29.332 51.3958 29.0911 50.875 28.6094C50.3672 28.1276 49.9961 27.5221 49.7617 26.793C49.319 27.5352 48.7917 28.1276 48.1797 28.5703C47.5677 29 46.9557 29.2148 46.3438 29.2148C45.862 29.2148 45.4258 29.1302 45.0352 28.9609C44.6445 28.7786 44.3125 28.5312 44.0391 28.2188C43.7656 27.8932 43.5508 27.5156 43.3945 27.0859C43.2513 26.6562 43.1797 26.1875 43.1797 25.6797C43.1797 24.6641 43.349 23.7721 43.6875 23.0039C44.0391 22.2227 44.4818 21.5716 45.0156 21.0508C45.5495 20.5299 46.1354 20.1393 46.7734 19.8789C47.4245 19.6185 48.0495 19.4883 48.6484 19.4883C49.0521 19.4883 49.4232 19.5469 49.7617 19.6641C50.1003 19.7682 50.3867 19.8854 50.6211 20.0156C50.8685 20.1458 51.0573 20.2695 51.1875 20.3867C51.3177 20.4909 51.3893 20.5495 51.4023 20.5625C51.5456 20.7318 51.6172 20.9076 51.6172 21.0898C51.6172 21.2852 51.5456 21.4609 51.4023 21.6172C51.2591 21.7604 51.0898 21.832 50.8945 21.832C50.6862 21.832 50.5104 21.7604 50.3672 21.6172C50.3411 21.5911 50.2826 21.5456 50.1914 21.4805C50.1003 21.4023 49.9766 21.3242 49.8203 21.2461C49.6641 21.168 49.4753 21.1029 49.2539 21.0508C49.0456 20.9857 48.8047 20.9531 48.5312 20.9531C48.1276 20.9531 47.6979 21.0443 47.2422 21.2266C46.7865 21.4089 46.3698 21.6953 45.9922 22.0859C45.6146 22.4635 45.2956 22.9453 45.0352 23.5312C44.7878 24.1042 44.6641 24.7878 44.6641 25.582C44.6641 25.8294 44.6901 26.0833 44.7422 26.3438C44.7943 26.5911 44.8854 26.819 45.0156 27.0273C45.1458 27.2357 45.3216 27.4049 45.543 27.5352C45.7643 27.6654 46.0378 27.7305 46.3633 27.7305C46.5977 27.7305 46.8646 27.6523 47.1641 27.4961C47.4766 27.3398 47.7695 27.099 48.043 26.7734C48.3294 26.4479 48.5833 26.0378 48.8047 25.543C49.0391 25.0482 49.2018 24.4622 49.293 23.7852C49.319 23.6029 49.4036 23.4531 49.5469 23.3359C49.6901 23.2057 49.8594 23.1406 50.0547 23.1406C50.237 23.1406 50.3932 23.2122 50.5234 23.3555C50.6667 23.4987 50.7448 23.6615 50.7578 23.8438C50.7708 24.0911 50.7969 24.4427 50.8359 24.8984C50.875 25.3411 50.9596 25.7839 51.0898 26.2266C51.2331 26.6693 51.4414 27.0534 51.7148 27.3789C51.9883 27.7044 52.3659 27.8672 52.8477 27.8672C53.1602 27.8672 53.4661 27.7826 53.7656 27.6133C54.0781 27.444 54.3776 27.2227 54.6641 26.9492C54.9635 26.6628 55.2435 26.3438 55.5039 25.9922C55.7773 25.6276 56.0247 25.263 56.2461 24.8984C56.4674 24.5339 56.6628 24.1823 56.832 23.8438C57.0013 23.5052 57.1445 23.2122 57.2617 22.9648C57.3268 22.8216 57.418 22.7109 57.5352 22.6328C57.6654 22.5547 57.8021 22.5156 57.9453 22.5156C58.1667 22.5156 58.3424 22.6003 58.4727 22.7695C58.6159 22.9258 58.6875 23.0951 58.6875 23.2773C58.6875 23.3685 58.668 23.4596 58.6289 23.5508ZM59.4492 21.7734C59.3711 21.9818 59.2734 22.2161 59.1562 22.4766C59.0521 22.737 58.9284 23.0104 58.7852 23.2969C58.668 23.5182 58.5443 23.694 58.4141 23.8242C58.2969 23.9414 58.1406 24 57.9453 24C57.724 24 57.5482 23.9349 57.418 23.8047C57.2878 23.6615 57.2227 23.4987 57.2227 23.3164C57.2227 23.2513 57.2292 23.1992 57.2422 23.1602C57.2552 23.1081 57.2878 23.0299 57.3398 22.9258C57.6784 22.2747 57.9258 21.7083 58.082 21.2266C58.2513 20.7318 58.388 20.2174 58.4922 19.6836C58.401 19.3841 58.3359 19.1302 58.2969 18.9219C58.2578 18.7135 58.2383 18.4987 58.2383 18.2773C58.2383 17.8477 58.3294 17.5026 58.5117 17.2422C58.694 16.9688 58.9479 16.832 59.2734 16.832C59.5729 16.832 59.8073 16.9622 59.9766 17.2227C60.1589 17.4831 60.25 17.8021 60.25 18.1797C60.25 18.388 60.2305 18.5964 60.1914 18.8047C60.1523 19.013 60.1003 19.2734 60.0352 19.5859C60.3346 20.3281 60.6341 20.9857 60.9336 21.5586C61.2331 22.1315 61.5 22.6589 61.7344 23.1406C61.9688 23.6094 62.1576 24.0521 62.3008 24.4688C62.457 24.8854 62.5352 25.3021 62.5352 25.7188C62.5352 26.2656 62.4245 26.7865 62.2031 27.2812C61.9818 27.776 61.6172 28.1927 61.1094 28.5312C61.1745 28.5443 61.2396 28.5508 61.3047 28.5508C61.3698 28.5508 61.4349 28.5508 61.5 28.5508C62.2422 28.5508 62.9258 28.3815 63.5508 28.043C64.1758 27.7044 64.7357 27.2682 65.2305 26.7344C65.7383 26.1875 66.1875 25.5885 66.5781 24.9375C66.9688 24.2734 67.3073 23.6159 67.5938 22.9648C67.724 22.6654 67.9062 22.5156 68.1406 22.5156C68.362 22.5156 68.5312 22.5938 68.6484 22.75C68.7786 22.9062 68.8438 23.0755 68.8438 23.2578C68.8438 23.362 68.8242 23.4596 68.7852 23.5508C68.6419 23.9023 68.4531 24.306 68.2188 24.7617C67.9974 25.2044 67.724 25.6667 67.3984 26.1484C67.0859 26.6172 66.7214 27.0794 66.3047 27.5352C65.888 27.9909 65.4193 28.401 64.8984 28.7656C64.3906 29.1172 63.8307 29.3971 63.2188 29.6055C62.6068 29.8268 61.9362 29.9375 61.207 29.9375C60.3346 29.9375 59.5208 29.7812 58.7656 29.4688C58.0234 29.1693 57.418 28.668 56.9492 27.9648C56.8711 27.8477 56.832 27.724 56.832 27.5938C56.832 27.3984 56.9036 27.2292 57.0469 27.0859C57.2031 26.9297 57.3789 26.8516 57.5742 26.8516C57.7826 26.8516 57.9583 26.9232 58.1016 27.0664C58.1146 27.0924 58.1602 27.138 58.2383 27.2031C58.3164 27.2552 58.4076 27.3203 58.5117 27.3984C58.6289 27.4635 58.7591 27.5221 58.9023 27.5742C59.0586 27.6263 59.2148 27.6523 59.3711 27.6523C59.6836 27.6523 59.944 27.5872 60.1523 27.457C60.3737 27.3268 60.5495 27.1706 60.6797 26.9883C60.8099 26.793 60.901 26.5911 60.9531 26.3828C61.0182 26.1615 61.0508 25.9727 61.0508 25.8164C61.0508 25.4909 60.9987 25.1654 60.8945 24.8398C60.7904 24.5143 60.6536 24.1888 60.4844 23.8633C60.3281 23.5378 60.1523 23.2057 59.957 22.8672C59.7747 22.5156 59.6055 22.151 59.4492 21.7734ZM69.6055 21.7734C69.5273 21.9818 69.4297 22.2161 69.3125 22.4766C69.2083 22.737 69.0846 23.0104 68.9414 23.2969C68.8242 23.5182 68.7005 23.694 68.5703 23.8242C68.4531 23.9414 68.2969 24 68.1016 24C67.8802 24 67.7044 23.9349 67.5742 23.8047C67.444 23.6615 67.3789 23.4987 67.3789 23.3164C67.3789 23.2513 67.3854 23.1992 67.3984 23.1602C67.4115 23.1081 67.444 23.0299 67.4961 22.9258C67.8346 22.2747 68.082 21.7083 68.2383 21.2266C68.4076 20.7318 68.5443 20.2174 68.6484 19.6836C68.5573 19.3841 68.4922 19.1302 68.4531 18.9219C68.4141 18.7135 68.3945 18.4987 68.3945 18.2773C68.3945 17.8477 68.4857 17.5026 68.668 17.2422C68.8503 16.9688 69.1042 16.832 69.4297 16.832C69.7292 16.832 69.9635 16.9622 70.1328 17.2227C70.3151 17.4831 70.4062 17.8021 70.4062 18.1797C70.4062 18.388 70.3867 18.5964 70.3477 18.8047C70.3086 19.013 70.2565 19.2734 70.1914 19.5859C70.4909 20.3281 70.7904 20.9857 71.0898 21.5586C71.3893 22.1315 71.6562 22.6589 71.8906 23.1406C72.125 23.6094 72.3138 24.0521 72.457 24.4688C72.6133 24.8854 72.6914 25.3021 72.6914 25.7188C72.6914 26.2656 72.5807 26.7865 72.3594 27.2812C72.138 27.776 71.7734 28.1927 71.2656 28.5312C71.3307 28.5443 71.3958 28.5508 71.4609 28.5508C71.526 28.5508 71.5911 28.5508 71.6562 28.5508C72.3984 28.5508 73.082 28.3815 73.707 28.043C74.332 27.7044 74.8919 27.2682 75.3867 26.7344C75.8945 26.1875 76.3438 25.5885 76.7344 24.9375C77.125 24.2734 77.4635 23.6159 77.75 22.9648C77.8802 22.6654 78.0625 22.5156 78.2969 22.5156C78.5182 22.5156 78.6875 22.5938 78.8047 22.75C78.9349 22.9062 79 23.0755 79 23.2578C79 23.362 78.9805 23.4596 78.9414 23.5508C78.7982 23.9023 78.6094 24.306 78.375 24.7617C78.1536 25.2044 77.8802 25.6667 77.5547 26.1484C77.2422 26.6172 76.8776 27.0794 76.4609 27.5352C76.0443 27.9909 75.5755 28.401 75.0547 28.7656C74.5469 29.1172 73.987 29.3971 73.375 29.6055C72.763 29.8268 72.0924 29.9375 71.3633 29.9375C70.4909 29.9375 69.6771 29.7812 68.9219 29.4688C68.1797 29.1693 67.5742 28.668 67.1055 27.9648C67.0273 27.8477 66.9883 27.724 66.9883 27.5938C66.9883 27.3984 67.0599 27.2292 67.2031 27.0859C67.3594 26.9297 67.5352 26.8516 67.7305 26.8516C67.9388 26.8516 68.1146 26.9232 68.2578 27.0664C68.2708 27.0924 68.3164 27.138 68.3945 27.2031C68.4727 27.2552 68.5638 27.3203 68.668 27.3984C68.7852 27.4635 68.9154 27.5221 69.0586 27.5742C69.2148 27.6263 69.3711 27.6523 69.5273 27.6523C69.8398 27.6523 70.1003 27.5872 70.3086 27.457C70.5299 27.3268 70.7057 27.1706 70.8359 26.9883C70.9661 26.793 71.0573 26.5911 71.1094 26.3828C71.1745 26.1615 71.207 25.9727 71.207 25.8164C71.207 25.4909 71.1549 25.1654 71.0508 24.8398C70.9466 24.5143 70.8099 24.1888 70.6406 23.8633C70.4844 23.5378 70.3086 23.2057 70.1133 22.8672C69.931 22.5156 69.7617 22.151 69.6055 21.7734ZM80.7773 13.668C80.7773 14.1628 80.6016 14.5859 80.25 14.9375C79.9115 15.276 79.4948 15.4453 79 15.4453C78.5052 15.4453 78.082 15.276 77.7305 14.9375C77.3919 14.5859 77.2227 14.1628 77.2227 13.668C77.2227 13.4206 77.2682 13.1927 77.3594 12.9844C77.4505 12.763 77.5742 12.5742 77.7305 12.418C77.8997 12.2487 78.0885 12.1185 78.2969 12.0273C78.5182 11.9362 78.7526 11.8906 79 11.8906C79.2474 11.8906 79.4753 11.9362 79.6836 12.0273C79.9049 12.1185 80.0938 12.2487 80.25 12.418C80.4193 12.5742 80.5495 12.763 80.6406 12.9844C80.7318 13.1927 80.7773 13.4206 80.7773 13.668ZM77.6133 25.1133C77.6133 23.2383 77.7305 21.3698 77.9648 19.5078C77.9909 19.3255 78.069 19.1693 78.1992 19.0391C78.3424 18.8958 78.5247 18.8242 78.7461 18.8242C78.9414 18.8242 79.1042 18.9023 79.2344 19.0586C79.3646 19.2018 79.4297 19.3711 79.4297 19.5664C79.4297 19.6445 79.4102 19.8789 79.3711 20.2695C79.3451 20.6602 79.306 21.1289 79.2539 21.6758C79.2148 22.2096 79.1758 22.7826 79.1367 23.3945C79.1107 23.9935 79.0977 24.5469 79.0977 25.0547C79.0977 25.7448 79.1628 26.3047 79.293 26.7344C79.4362 27.151 79.612 27.4766 79.8203 27.7109C80.0417 27.9453 80.2695 28.1016 80.5039 28.1797C80.7513 28.2578 80.9857 28.2969 81.207 28.2969C81.5716 28.2969 81.9492 28.1667 82.3398 27.9062C82.7305 27.6458 83.1276 27.2812 83.5312 26.8125C83.9479 26.3438 84.3646 25.7839 84.7812 25.1328C85.1979 24.4688 85.6081 23.7331 86.0117 22.9258C86.0768 22.7956 86.168 22.6979 86.2852 22.6328C86.4023 22.5547 86.5326 22.5156 86.6758 22.5156C86.8841 22.5156 87.0534 22.5938 87.1836 22.75C87.3268 22.9062 87.3984 23.0755 87.3984 23.2578C87.3984 23.388 87.3724 23.4987 87.3203 23.5898C87.1641 23.8893 86.9688 24.2539 86.7344 24.6836C86.5 25.1133 86.2331 25.556 85.9336 26.0117C85.6341 26.4674 85.3021 26.9232 84.9375 27.3789C84.5859 27.8216 84.2083 28.2253 83.8047 28.5898C83.401 28.9414 82.9779 29.2279 82.5352 29.4492C82.0924 29.6706 81.6432 29.7812 81.1875 29.7812C80.6016 29.7812 80.0872 29.6576 79.6445 29.4102C79.2018 29.1628 78.8242 28.8307 78.5117 28.4141C78.2122 27.9974 77.9844 27.5091 77.8281 26.9492C77.6849 26.3763 77.6133 25.7643 77.6133 25.1133ZM79.6836 13.668C79.6836 13.4857 79.612 13.3294 79.4688 13.1992C79.3385 13.056 79.1823 12.9844 79 12.9844C78.8177 12.9844 78.6615 13.056 78.5312 13.1992C78.401 13.3294 78.3359 13.4857 78.3359 13.668C78.3359 13.8503 78.401 14.0065 78.5312 14.1367C78.6615 14.2669 78.8177 14.332 79 14.332C79.1823 14.332 79.3385 14.2669 79.4688 14.1367C79.612 14.0065 79.6836 13.8503 79.6836 13.668ZM98.7656 23.5898C98.6875 23.7331 98.5508 23.9935 98.3555 24.3711C98.1732 24.7487 97.9193 25.1784 97.5938 25.6602C97.2812 26.1289 96.9036 26.6172 96.4609 27.125C96.0182 27.6328 95.5104 28.1016 94.9375 28.5312C94.3646 28.9479 93.7201 29.293 93.0039 29.5664C92.3008 29.8398 91.5326 29.9766 90.6992 29.9766C89.957 29.9766 89.2995 29.8398 88.7266 29.5664C88.1536 29.306 87.6654 28.9349 87.2617 28.4531C86.8581 27.9583 86.5521 27.3789 86.3438 26.7148C86.1354 26.0508 86.0312 25.3151 86.0312 24.5078C86.0312 23.7266 86.1419 22.9974 86.3633 22.3203C86.5846 21.6302 86.8841 21.0312 87.2617 20.5234C87.6523 20.0156 88.1016 19.6185 88.6094 19.332C89.1172 19.0326 89.6576 18.8828 90.2305 18.8828C90.6602 18.8828 91.0508 18.9609 91.4023 19.1172C91.7539 19.2604 92.0469 19.4557 92.2812 19.7031C92.5286 19.9505 92.7174 20.224 92.8477 20.5234C92.9909 20.8229 93.0625 21.1224 93.0625 21.4219C93.0625 21.7083 93.0234 21.9753 92.9453 22.2227C92.8802 22.4701 92.7891 22.6914 92.6719 22.8867C92.5677 23.069 92.444 23.2188 92.3008 23.3359C92.1576 23.4401 92.0143 23.4922 91.8711 23.4922C91.6497 23.4922 91.4674 23.4206 91.3242 23.2773C91.194 23.1341 91.1289 22.9583 91.1289 22.75C91.1289 22.6458 91.1484 22.5547 91.1875 22.4766C91.2396 22.3984 91.2917 22.3203 91.3438 22.2422C91.4089 22.151 91.4609 22.0469 91.5 21.9297C91.5521 21.7995 91.5781 21.6367 91.5781 21.4414C91.5781 21.168 91.4479 20.9206 91.1875 20.6992C90.9401 20.4779 90.6211 20.3672 90.2305 20.3672C89.8659 20.3672 89.5143 20.4779 89.1758 20.6992C88.8503 20.9206 88.5638 21.2201 88.3164 21.5977C88.069 21.9622 87.8672 22.3984 87.7109 22.9062C87.5677 23.401 87.4961 23.9284 87.4961 24.4883C87.4961 25.0221 87.5612 25.5299 87.6914 26.0117C87.8216 26.4935 88.0169 26.9232 88.2773 27.3008C88.5378 27.6654 88.8633 27.9583 89.2539 28.1797C89.6576 28.401 90.1328 28.5117 90.6797 28.5117C91.3828 28.5117 92.0339 28.388 92.6328 28.1406C93.2318 27.8802 93.7786 27.5547 94.2734 27.1641C94.7682 26.7734 95.2044 26.3503 95.582 25.8945C95.9596 25.4258 96.2786 24.9896 96.5391 24.5859C96.8125 24.1693 97.0208 23.8112 97.1641 23.5117C97.3203 23.1992 97.4115 23.0039 97.4375 22.9258C97.4896 22.7956 97.5742 22.6979 97.6914 22.6328C97.8216 22.5547 97.9583 22.5156 98.1016 22.5156C98.3229 22.5156 98.4987 22.5938 98.6289 22.75C98.7721 22.9062 98.8438 23.082 98.8438 23.2773C98.8438 23.3555 98.8177 23.4596 98.7656 23.5898ZM138.18 21.7539C137.568 22.7435 136.741 23.7266 135.699 24.7031C134.658 25.6667 133.466 26.5391 132.125 27.3203C130.797 28.0885 129.345 28.707 127.77 29.1758C126.194 29.6576 124.566 29.8984 122.887 29.8984C121.572 29.8984 120.257 29.7812 118.941 29.5469C117.639 29.3125 116.383 28.9544 115.172 28.4727C113.974 27.9909 112.854 27.3854 111.812 26.6562C110.784 25.9141 109.885 25.0417 109.117 24.0391C108.349 23.0365 107.743 21.8971 107.301 20.6211C106.871 19.3451 106.656 17.9258 106.656 16.3633C106.656 14.8398 106.878 13.3945 107.32 12.0273C107.776 10.6602 108.408 9.39714 109.215 8.23828C110.022 7.06641 110.979 6.01172 112.086 5.07422C113.193 4.13672 114.404 3.34245 115.719 2.69141C117.034 2.02734 118.421 1.51953 119.879 1.16797C121.337 0.816406 122.828 0.640625 124.352 0.640625C126.031 0.640625 127.607 0.842448 129.078 1.24609C130.562 1.63672 131.858 2.19661 132.965 2.92578C134.072 3.64193 134.944 4.50781 135.582 5.52344C136.233 6.52604 136.559 7.64583 136.559 8.88281C136.559 10.0286 136.292 11.1224 135.758 12.1641C135.224 13.1927 134.488 14.0977 133.551 14.8789C132.626 15.6602 131.539 16.2786 130.289 16.7344C129.052 17.1901 127.73 17.418 126.324 17.418C125.191 17.418 124.189 17.2812 123.316 17.0078C122.444 16.7214 121.715 16.3307 121.129 15.8359C120.543 15.3411 120.1 14.7617 119.801 14.0977C119.501 13.4336 119.352 12.7174 119.352 11.9492C119.352 11.3112 119.449 10.7318 119.645 10.2109C119.853 9.67708 120.074 9.22135 120.309 8.84375C120.556 8.46615 120.784 8.17318 120.992 7.96484C121.214 7.74349 121.337 7.61979 121.363 7.59375C121.428 7.52865 121.5 7.48958 121.578 7.47656C121.669 7.45052 121.754 7.4375 121.832 7.4375C122.04 7.4375 122.216 7.5026 122.359 7.63281C122.503 7.76302 122.574 7.93229 122.574 8.14062C122.574 8.375 122.49 8.57031 122.32 8.72656C122.294 8.73958 122.203 8.83073 122.047 9C121.891 9.15625 121.721 9.3776 121.539 9.66406C121.357 9.9375 121.188 10.2695 121.031 10.6602C120.888 11.0508 120.816 11.4805 120.816 11.9492C120.816 12.6914 120.979 13.3164 121.305 13.8242C121.643 14.332 122.079 14.7487 122.613 15.0742C123.147 15.3867 123.74 15.6146 124.391 15.7578C125.042 15.888 125.693 15.9531 126.344 15.9531C127.555 15.9531 128.688 15.7578 129.742 15.3672C130.81 14.9766 131.741 14.4557 132.535 13.8047C133.329 13.1536 133.954 12.4049 134.41 11.5586C134.866 10.7122 135.094 9.82682 135.094 8.90234C135.094 7.88672 134.807 6.96224 134.234 6.12891C133.661 5.28255 132.887 4.56641 131.91 3.98047C130.934 3.38151 129.788 2.91927 128.473 2.59375C127.171 2.26823 125.777 2.10547 124.293 2.10547C123.173 2.10547 121.995 2.24219 120.758 2.51562C119.534 2.77604 118.323 3.17318 117.125 3.70703C115.927 4.24089 114.781 4.90495 113.688 5.69922C112.607 6.49349 111.656 7.42448 110.836 8.49219C110.016 9.54688 109.358 10.7318 108.863 12.0469C108.382 13.362 108.141 14.8008 108.141 16.3633C108.141 17.7826 108.336 19.0651 108.727 20.2109C109.13 21.3568 109.684 22.3789 110.387 23.2773C111.09 24.1628 111.91 24.931 112.848 25.582C113.798 26.2331 114.814 26.7734 115.895 27.2031C116.988 27.6198 118.128 27.9323 119.312 28.1406C120.497 28.3359 121.676 28.4336 122.848 28.4336C124.41 28.4336 125.914 28.2188 127.359 27.7891C128.805 27.3464 130.139 26.7734 131.363 26.0703C132.6 25.3542 133.694 24.5534 134.645 23.668C135.595 22.7826 136.35 21.8906 136.91 20.9922C136.975 20.875 137.066 20.7904 137.184 20.7383C137.301 20.6732 137.424 20.6406 137.555 20.6406C137.776 20.6406 137.952 20.7188 138.082 20.875C138.212 21.0182 138.277 21.181 138.277 21.3633C138.277 21.4284 138.271 21.4935 138.258 21.5586C138.245 21.6237 138.219 21.6888 138.18 21.7539ZM146.695 26.8125C146.24 27.5547 145.706 28.1406 145.094 28.5703C144.495 29 143.889 29.2148 143.277 29.2148C142.783 29.2148 142.34 29.1237 141.949 28.9414C141.559 28.7591 141.22 28.5052 140.934 28.1797C140.647 27.8411 140.426 27.4375 140.27 26.9688C140.126 26.5 140.055 25.9727 140.055 25.3867C140.055 24.4753 140.139 23.668 140.309 22.9648C140.491 22.2617 140.686 21.6758 140.895 21.207C141.103 20.7253 141.298 20.3607 141.48 20.1133C141.663 19.8659 141.754 19.7422 141.754 19.7422C141.819 19.6641 141.897 19.6055 141.988 19.5664C142.092 19.5273 142.197 19.5078 142.301 19.5078C142.509 19.5078 142.678 19.5859 142.809 19.7422C142.952 19.8854 143.023 20.0547 143.023 20.25C143.023 20.3281 143.004 20.4062 142.965 20.4844C142.939 20.5625 142.906 20.6406 142.867 20.7188C142.802 20.8359 142.698 21.0182 142.555 21.2656C142.411 21.5 142.262 21.8125 142.105 22.2031C141.949 22.5938 141.812 23.056 141.695 23.5898C141.578 24.1107 141.52 24.7096 141.52 25.3867C141.52 26.1549 141.669 26.7409 141.969 27.1445C142.281 27.5352 142.717 27.7305 143.277 27.7305C143.512 27.7305 143.779 27.6589 144.078 27.5156C144.391 27.3594 144.69 27.125 144.977 26.8125C145.276 26.5 145.536 26.1029 145.758 25.6211C145.979 25.1393 146.122 24.5729 146.188 23.9219L146.48 20.5625C146.507 20.3672 146.591 20.2044 146.734 20.0742C146.878 19.944 147.047 19.8789 147.242 19.8789C147.464 19.8789 147.639 19.9635 147.77 20.1328C147.9 20.2891 147.965 20.4714 147.965 20.6797L147.711 23.9219C147.685 24.1953 147.691 24.5534 147.73 24.9961C147.783 25.4388 147.88 25.875 148.023 26.3047C148.167 26.7344 148.382 27.1055 148.668 27.418C148.954 27.7174 149.332 27.8672 149.801 27.8672C150.139 27.8672 150.471 27.7826 150.797 27.6133C151.122 27.431 151.435 27.1966 151.734 26.9102C152.034 26.6237 152.307 26.3047 152.555 25.9531C152.815 25.5885 153.049 25.224 153.258 24.8594C153.479 24.4948 153.668 24.1497 153.824 23.8242C153.98 23.4857 154.111 23.1992 154.215 22.9648C154.28 22.8216 154.371 22.7109 154.488 22.6328C154.605 22.5547 154.736 22.5156 154.879 22.5156C155.113 22.5156 155.296 22.5938 155.426 22.75C155.556 22.9062 155.621 23.0755 155.621 23.2578C155.621 23.362 155.602 23.4596 155.562 23.5508C155.51 23.6549 155.406 23.8763 155.25 24.2148C155.107 24.5404 154.911 24.918 154.664 25.3477C154.43 25.7643 154.143 26.207 153.805 26.6758C153.466 27.1445 153.089 27.5807 152.672 27.9844C152.255 28.375 151.799 28.7005 151.305 28.9609C150.823 29.2083 150.302 29.332 149.742 29.332C148.974 29.332 148.336 29.1172 147.828 28.6875C147.32 28.2448 146.943 27.6198 146.695 26.8125ZM164.254 23.5508C164.254 24.7487 164.039 25.7708 163.609 26.6172C163.18 27.4635 162.652 28.1081 162.027 28.5508H162.105C162.874 28.5508 163.57 28.3815 164.195 28.043C164.833 27.6914 165.406 27.2487 165.914 26.7148C166.422 26.168 166.878 25.5625 167.281 24.8984C167.685 24.2344 168.043 23.5898 168.355 22.9648C168.421 22.8216 168.512 22.7109 168.629 22.6328C168.759 22.5547 168.896 22.5156 169.039 22.5156C169.26 22.5156 169.436 22.5938 169.566 22.75C169.697 22.9062 169.762 23.0755 169.762 23.2578C169.762 23.362 169.742 23.4596 169.703 23.5508C169.365 24.306 168.961 25.0677 168.492 25.8359C168.023 26.5911 167.477 27.2747 166.852 27.8867C166.227 28.4987 165.523 28.9935 164.742 29.3711C163.961 29.7617 163.095 29.957 162.145 29.957C161.454 29.957 160.784 29.8464 160.133 29.625C159.482 29.4167 158.909 29.0846 158.414 28.6289C158.232 28.4857 158.076 28.3359 157.945 28.1797C157.815 28.0104 157.711 27.8542 157.633 27.7109C157.607 27.6849 157.594 27.6589 157.594 27.6328C157.516 27.5156 157.477 27.3919 157.477 27.2617C157.477 27.0924 157.535 26.9362 157.652 26.793C157.665 26.7669 157.678 26.7539 157.691 26.7539C157.704 26.7409 157.717 26.7279 157.73 26.7148C157.861 26.5977 158.004 26.5326 158.16 26.5195H158.219C158.284 26.5195 158.329 26.526 158.355 26.5391C158.368 26.5391 158.375 26.5456 158.375 26.5586C158.388 26.5586 158.401 26.5586 158.414 26.5586C158.453 26.5586 158.499 26.5716 158.551 26.5977C158.564 26.6107 158.577 26.6172 158.59 26.6172C158.707 26.6953 158.805 26.793 158.883 26.9102C158.974 27.0664 159.078 27.2096 159.195 27.3398C159.299 27.444 159.423 27.5417 159.566 27.6328C159.71 27.7109 159.872 27.75 160.055 27.75C160.38 27.75 160.706 27.6523 161.031 27.457C161.357 27.2617 161.65 26.9818 161.91 26.6172C162.171 26.2526 162.379 25.8099 162.535 25.2891C162.704 24.7682 162.789 24.1888 162.789 23.5508C162.789 23.082 162.737 22.6849 162.633 22.3594C162.542 22.0208 162.418 21.7474 162.262 21.5391C162.118 21.3307 161.962 21.181 161.793 21.0898C161.624 20.9857 161.461 20.9336 161.305 20.9336C160.953 20.9336 160.595 21.1159 160.23 21.4805C159.879 21.8451 159.527 22.3073 159.176 22.8672C158.824 23.4271 158.473 24.0456 158.121 24.7227C157.783 25.3997 157.438 26.0573 157.086 26.6953C157.06 28.8047 157.021 30.8164 156.969 32.7305C156.93 34.6445 156.852 36.4219 156.734 38.0625C156.63 39.7031 156.48 41.1875 156.285 42.5156C156.09 43.8438 155.823 44.9766 155.484 45.9141C155.146 46.8646 154.729 47.5938 154.234 48.1016C153.74 48.6094 153.134 48.8633 152.418 48.8633C152.197 48.8633 151.943 48.8177 151.656 48.7266C151.37 48.6354 151.103 48.4466 150.855 48.1602C150.608 47.8867 150.4 47.4896 150.23 46.9688C150.061 46.4479 149.977 45.7513 149.977 44.8789C149.977 43.7721 150.113 42.4896 150.387 41.0312C150.66 39.5729 151.051 38.0234 151.559 36.3828C152.053 34.7552 152.646 33.082 153.336 31.3633C154.026 29.6445 154.788 27.9714 155.621 26.3438C155.621 25.888 155.621 25.4388 155.621 24.9961C155.634 24.5534 155.641 24.1237 155.641 23.707C155.471 23.9023 155.27 24 155.035 24C154.814 24 154.638 23.9219 154.508 23.7656C154.378 23.6094 154.312 23.4401 154.312 23.2578C154.312 23.1667 154.332 23.069 154.371 22.9648C154.684 22.2487 154.924 21.5716 155.094 20.9336C155.263 20.2826 155.387 19.7161 155.465 19.2344C155.556 18.7396 155.608 18.349 155.621 18.0625C155.634 17.776 155.641 17.6263 155.641 17.6133C155.641 17.418 155.712 17.2487 155.855 17.1055C155.999 16.9622 156.174 16.8906 156.383 16.8906C156.578 16.8906 156.747 16.9622 156.891 17.1055C157.034 17.2357 157.105 17.4049 157.105 17.6133V23.6094C157.405 23.1016 157.704 22.6003 158.004 22.1055C158.303 21.6107 158.616 21.168 158.941 20.7773C159.28 20.3867 159.638 20.0742 160.016 19.8398C160.406 19.5924 160.836 19.4688 161.305 19.4688C161.747 19.4688 162.151 19.5729 162.516 19.7812C162.88 19.9896 163.193 20.276 163.453 20.6406C163.714 21.0052 163.909 21.4414 164.039 21.9492C164.182 22.444 164.254 22.9779 164.254 23.5508ZM155.582 29.8203C154.944 31.2526 154.365 32.6914 153.844 34.1367C153.336 35.582 152.906 36.9753 152.555 38.3164C152.19 39.6576 151.91 40.9141 151.715 42.0859C151.52 43.2578 151.422 44.2865 151.422 45.1719C151.422 45.3932 151.435 45.6341 151.461 45.8945C151.487 46.1549 151.539 46.3958 151.617 46.6172C151.695 46.8385 151.806 47.0208 151.949 47.1641C152.092 47.3203 152.281 47.3984 152.516 47.3984C152.945 47.3984 153.316 47.125 153.629 46.5781C153.941 46.0443 154.202 45.3151 154.41 44.3906C154.632 43.4792 154.814 42.4245 154.957 41.2266C155.1 40.0417 155.211 38.7982 155.289 37.4961C155.38 36.194 155.445 34.8789 155.484 33.5508C155.523 32.2357 155.556 30.9922 155.582 29.8203ZM181.148 23.5898C181.07 23.7331 180.934 23.9935 180.738 24.3711C180.556 24.7487 180.302 25.1784 179.977 25.6602C179.664 26.1289 179.286 26.6172 178.844 27.125C178.401 27.6328 177.893 28.1016 177.32 28.5312C176.747 28.9479 176.103 29.293 175.387 29.5664C174.684 29.8398 173.915 29.9766 173.082 29.9766C172.34 29.9766 171.682 29.8398 171.109 29.5664C170.536 29.306 170.048 28.9349 169.645 28.4531C169.241 27.9583 168.935 27.3789 168.727 26.7148C168.518 26.0508 168.414 25.3151 168.414 24.5078C168.414 23.7266 168.525 22.9974 168.746 22.3203C168.967 21.6302 169.267 21.0312 169.645 20.5234C170.035 20.0156 170.484 19.6185 170.992 19.332C171.5 19.0326 172.04 18.8828 172.613 18.8828C173.043 18.8828 173.434 18.9609 173.785 19.1172C174.137 19.2604 174.43 19.4557 174.664 19.7031C174.911 19.9505 175.1 20.224 175.23 20.5234C175.374 20.8229 175.445 21.1224 175.445 21.4219C175.445 21.7083 175.406 21.9753 175.328 22.2227C175.263 22.4701 175.172 22.6914 175.055 22.8867C174.951 23.069 174.827 23.2188 174.684 23.3359C174.54 23.4401 174.397 23.4922 174.254 23.4922C174.033 23.4922 173.85 23.4206 173.707 23.2773C173.577 23.1341 173.512 22.9583 173.512 22.75C173.512 22.6458 173.531 22.5547 173.57 22.4766C173.622 22.3984 173.674 22.3203 173.727 22.2422C173.792 22.151 173.844 22.0469 173.883 21.9297C173.935 21.7995 173.961 21.6367 173.961 21.4414C173.961 21.168 173.831 20.9206 173.57 20.6992C173.323 20.4779 173.004 20.3672 172.613 20.3672C172.249 20.3672 171.897 20.4779 171.559 20.6992C171.233 20.9206 170.947 21.2201 170.699 21.5977C170.452 21.9622 170.25 22.3984 170.094 22.9062C169.951 23.401 169.879 23.9284 169.879 24.4883C169.879 25.0221 169.944 25.5299 170.074 26.0117C170.204 26.4935 170.4 26.9232 170.66 27.3008C170.921 27.6654 171.246 27.9583 171.637 28.1797C172.04 28.401 172.516 28.5117 173.062 28.5117C173.766 28.5117 174.417 28.388 175.016 28.1406C175.615 27.8802 176.161 27.5547 176.656 27.1641C177.151 26.7734 177.587 26.3503 177.965 25.8945C178.342 25.4258 178.661 24.9896 178.922 24.5859C179.195 24.1693 179.404 23.8112 179.547 23.5117C179.703 23.1992 179.794 23.0039 179.82 22.9258C179.872 22.7956 179.957 22.6979 180.074 22.6328C180.204 22.5547 180.341 22.5156 180.484 22.5156C180.706 22.5156 180.882 22.5938 181.012 22.75C181.155 22.9062 181.227 23.082 181.227 23.2773C181.227 23.3555 181.201 23.4596 181.148 23.5898ZM194.918 23.5508C194.866 23.6549 194.755 23.8763 194.586 24.2148C194.43 24.5404 194.221 24.918 193.961 25.3477C193.714 25.7773 193.421 26.2266 193.082 26.6953C192.743 27.1641 192.366 27.5938 191.949 27.9844C191.533 28.375 191.083 28.7005 190.602 28.9609C190.12 29.2083 189.612 29.332 189.078 29.332C188.323 29.332 187.685 29.0911 187.164 28.6094C186.656 28.1276 186.285 27.5221 186.051 26.793C185.608 27.5352 185.081 28.1276 184.469 28.5703C183.857 29 183.245 29.2148 182.633 29.2148C182.151 29.2148 181.715 29.1302 181.324 28.9609C180.934 28.7786 180.602 28.5312 180.328 28.2188C180.055 27.8932 179.84 27.5156 179.684 27.0859C179.54 26.6562 179.469 26.1875 179.469 25.6797C179.469 24.6641 179.638 23.7721 179.977 23.0039C180.328 22.2227 180.771 21.5716 181.305 21.0508C181.839 20.5299 182.424 20.1393 183.062 19.8789C183.714 19.6185 184.339 19.4883 184.938 19.4883C185.341 19.4883 185.712 19.5469 186.051 19.6641C186.389 19.7682 186.676 19.8854 186.91 20.0156C187.158 20.1458 187.346 20.2695 187.477 20.3867C187.607 20.4909 187.678 20.5495 187.691 20.5625C187.835 20.7318 187.906 20.9076 187.906 21.0898C187.906 21.2852 187.835 21.4609 187.691 21.6172C187.548 21.7604 187.379 21.832 187.184 21.832C186.975 21.832 186.799 21.7604 186.656 21.6172C186.63 21.5911 186.572 21.5456 186.48 21.4805C186.389 21.4023 186.266 21.3242 186.109 21.2461C185.953 21.168 185.764 21.1029 185.543 21.0508C185.335 20.9857 185.094 20.9531 184.82 20.9531C184.417 20.9531 183.987 21.0443 183.531 21.2266C183.076 21.4089 182.659 21.6953 182.281 22.0859C181.904 22.4635 181.585 22.9453 181.324 23.5312C181.077 24.1042 180.953 24.7878 180.953 25.582C180.953 25.8294 180.979 26.0833 181.031 26.3438C181.083 26.5911 181.174 26.819 181.305 27.0273C181.435 27.2357 181.611 27.4049 181.832 27.5352C182.053 27.6654 182.327 27.7305 182.652 27.7305C182.887 27.7305 183.154 27.6523 183.453 27.4961C183.766 27.3398 184.059 27.099 184.332 26.7734C184.618 26.4479 184.872 26.0378 185.094 25.543C185.328 25.0482 185.491 24.4622 185.582 23.7852C185.608 23.6029 185.693 23.4531 185.836 23.3359C185.979 23.2057 186.148 23.1406 186.344 23.1406C186.526 23.1406 186.682 23.2122 186.812 23.3555C186.956 23.4987 187.034 23.6615 187.047 23.8438C187.06 24.0911 187.086 24.4427 187.125 24.8984C187.164 25.3411 187.249 25.7839 187.379 26.2266C187.522 26.6693 187.73 27.0534 188.004 27.3789C188.277 27.7044 188.655 27.8672 189.137 27.8672C189.449 27.8672 189.755 27.7826 190.055 27.6133C190.367 27.444 190.667 27.2227 190.953 26.9492C191.253 26.6628 191.533 26.3438 191.793 25.9922C192.066 25.6276 192.314 25.263 192.535 24.8984C192.757 24.5339 192.952 24.1823 193.121 23.8438C193.29 23.5052 193.434 23.2122 193.551 22.9648C193.616 22.8216 193.707 22.7109 193.824 22.6328C193.954 22.5547 194.091 22.5156 194.234 22.5156C194.456 22.5156 194.632 22.6003 194.762 22.7695C194.905 22.9258 194.977 23.0951 194.977 23.2773C194.977 23.3685 194.957 23.4596 194.918 23.5508ZM198.492 26.5977C198.714 27.0924 199.078 27.4896 199.586 27.7891C200.094 28.0755 200.667 28.2188 201.305 28.2188C201.5 28.2188 201.819 28.1927 202.262 28.1406C202.704 28.0755 203.212 27.8802 203.785 27.5547C204.371 27.2161 204.99 26.6888 205.641 25.9727C206.292 25.2565 206.923 24.2474 207.535 22.9453C207.6 22.8021 207.691 22.6979 207.809 22.6328C207.926 22.5547 208.056 22.5156 208.199 22.5156C208.421 22.5156 208.596 22.5938 208.727 22.75C208.87 22.9062 208.941 23.0755 208.941 23.2578C208.941 23.3359 208.915 23.4401 208.863 23.5703C208.408 24.5208 207.9 25.3737 207.34 26.1289C206.78 26.8711 206.174 27.5091 205.523 28.043C204.872 28.5638 204.189 28.9609 203.473 29.2344C202.77 29.5208 202.047 29.6641 201.305 29.6641C200.719 29.6641 200.165 29.5729 199.645 29.3906C199.137 29.2083 198.694 28.9674 198.316 28.668C197.952 28.3555 197.659 28.0104 197.438 27.6328C197.229 27.2422 197.125 26.8451 197.125 26.4414C197.125 26.3893 197.132 26.3177 197.145 26.2266C197.158 26.1354 197.19 26.0378 197.242 25.9336C197.307 25.8164 197.392 25.7122 197.496 25.6211C197.613 25.5169 197.77 25.4323 197.965 25.3672C198.499 25.2109 198.987 25.0221 199.43 24.8008C199.885 24.5664 200.276 24.306 200.602 24.0195C200.927 23.7331 201.181 23.4206 201.363 23.082C201.546 22.7305 201.637 22.3529 201.637 21.9492C201.637 21.5977 201.52 21.3112 201.285 21.0898C201.051 20.8685 200.764 20.7578 200.426 20.7578C200.074 20.7578 199.729 20.8815 199.391 21.1289C199.052 21.3633 198.72 21.6823 198.395 22.0859C198.082 22.4766 197.783 22.9323 197.496 23.4531C197.21 23.9609 196.943 24.4948 196.695 25.0547C196.461 25.6146 196.253 26.1745 196.07 26.7344C195.888 27.2812 195.738 27.7891 195.621 28.2578C195.582 28.401 195.536 28.5573 195.484 28.7266C195.445 28.8958 195.38 29.0521 195.289 29.1953C195.198 29.3516 195.087 29.4753 194.957 29.5664C194.827 29.6706 194.658 29.7227 194.449 29.7227C194.254 29.7227 194.065 29.638 193.883 29.4688C193.701 29.3125 193.609 29.0391 193.609 28.6484C193.609 28.5703 193.609 28.2708 193.609 27.75C193.622 27.2292 193.635 26.5521 193.648 25.7188C193.661 24.8724 193.674 23.9089 193.688 22.8281C193.714 21.7344 193.733 20.582 193.746 19.3711C193.759 18.1471 193.779 16.8906 193.805 15.6016C193.831 14.3125 193.85 13.056 193.863 11.832C193.876 10.6081 193.889 9.44922 193.902 8.35547C193.928 7.2487 193.948 6.27214 193.961 5.42578C193.974 4.56641 193.98 3.86979 193.98 3.33594C193.993 2.78906 194 2.46354 194 2.35938C194 2.15104 194.078 1.98177 194.234 1.85156C194.391 1.70833 194.56 1.63672 194.742 1.63672C194.951 1.63672 195.126 1.70833 195.27 1.85156C195.413 1.98177 195.484 2.15755 195.484 2.37891C195.484 2.40495 195.478 2.66536 195.465 3.16016C195.465 3.64193 195.458 4.29297 195.445 5.11328C195.432 5.93359 195.413 6.89062 195.387 7.98438C195.374 9.07812 195.354 10.2435 195.328 11.4805C195.315 12.7044 195.296 13.9674 195.27 15.2695C195.257 16.5716 195.237 17.8411 195.211 19.0781C195.198 20.3151 195.185 21.4935 195.172 22.6133C195.159 23.7331 195.146 24.7227 195.133 25.582C195.341 24.918 195.608 24.2214 195.934 23.4922C196.259 22.75 196.643 22.0664 197.086 21.4414C197.529 20.8164 198.023 20.3021 198.57 19.8984C199.13 19.4948 199.749 19.293 200.426 19.293C200.803 19.293 201.155 19.3646 201.48 19.5078C201.806 19.638 202.086 19.8268 202.32 20.0742C202.568 20.3086 202.757 20.5885 202.887 20.9141C203.03 21.2396 203.102 21.5911 203.102 21.9688C203.102 22.5547 202.971 23.0951 202.711 23.5898C202.451 24.0716 202.105 24.5078 201.676 24.8984C201.246 25.276 200.751 25.6081 200.191 25.8945C199.645 26.181 199.078 26.4154 198.492 26.5977ZM209.898 26.8516C210.172 27.2292 210.523 27.5352 210.953 27.7695C211.383 27.9909 211.91 28.1016 212.535 28.1016C213.173 28.1016 213.753 27.9518 214.273 27.6523C214.794 27.3398 215.27 26.9362 215.699 26.4414C216.129 25.9466 216.513 25.3932 216.852 24.7812C217.19 24.1693 217.496 23.5573 217.77 22.9453C217.835 22.8021 217.926 22.6979 218.043 22.6328C218.16 22.5547 218.29 22.5156 218.434 22.5156C218.655 22.5156 218.831 22.5938 218.961 22.75C219.104 22.9062 219.176 23.0755 219.176 23.2578C219.176 23.3229 219.169 23.3815 219.156 23.4336C219.143 23.4727 219.124 23.5182 219.098 23.5703C218.199 25.5495 217.216 27.0404 216.148 28.043C215.094 29.0456 213.896 29.5599 212.555 29.5859C211.695 29.5859 210.953 29.4167 210.328 29.0781C209.703 28.7526 209.189 28.3294 208.785 27.8086C208.382 27.2747 208.082 26.6758 207.887 26.0117C207.691 25.3477 207.594 24.6836 207.594 24.0195C207.594 23.3555 207.672 22.7435 207.828 22.1836C207.997 21.6237 208.232 21.1354 208.531 20.7188C208.844 20.3021 209.208 19.9766 209.625 19.7422C210.055 19.5078 210.523 19.3906 211.031 19.3906C211.331 19.3906 211.624 19.4557 211.91 19.5859C212.21 19.7031 212.477 19.8789 212.711 20.1133C212.945 20.3346 213.134 20.6081 213.277 20.9336C213.421 21.2591 213.492 21.6302 213.492 22.0469C213.492 22.5807 213.401 23.082 213.219 23.5508C213.036 24.0195 212.783 24.4557 212.457 24.8594C212.145 25.263 211.767 25.6341 211.324 25.9727C210.882 26.3112 210.406 26.6042 209.898 26.8516ZM209.312 25.582C209.716 25.4128 210.081 25.1979 210.406 24.9375C210.745 24.6771 211.031 24.3906 211.266 24.0781C211.5 23.7656 211.682 23.4401 211.812 23.1016C211.943 22.75 212.008 22.3984 212.008 22.0469C212.008 21.6562 211.91 21.3633 211.715 21.168C211.52 20.9596 211.292 20.8555 211.031 20.8555C210.68 20.8555 210.38 20.9531 210.133 21.1484C209.885 21.3438 209.684 21.5977 209.527 21.9102C209.371 22.2227 209.254 22.5742 209.176 22.9648C209.111 23.3424 209.078 23.7201 209.078 24.0977C209.078 24.332 209.098 24.5794 209.137 24.8398C209.189 25.1003 209.247 25.3477 209.312 25.582ZM258.531 21.7539C257.919 22.7435 257.092 23.7266 256.051 24.7031C255.009 25.6667 253.818 26.5391 252.477 27.3203C251.148 28.0885 249.697 28.707 248.121 29.1758C246.546 29.6576 244.918 29.8984 243.238 29.8984C241.923 29.8984 240.608 29.7812 239.293 29.5469C237.991 29.3125 236.734 28.9544 235.523 28.4727C234.326 27.9909 233.206 27.3854 232.164 26.6562C231.135 25.9141 230.237 25.0417 229.469 24.0391C228.701 23.0365 228.095 21.8971 227.652 20.6211C227.223 19.3451 227.008 17.9258 227.008 16.3633C227.008 14.8398 227.229 13.3945 227.672 12.0273C228.128 10.6602 228.759 9.39714 229.566 8.23828C230.374 7.06641 231.331 6.01172 232.438 5.07422C233.544 4.13672 234.755 3.34245 236.07 2.69141C237.385 2.02734 238.772 1.51953 240.23 1.16797C241.689 0.816406 243.18 0.640625 244.703 0.640625C246.383 0.640625 247.958 0.842448 249.43 1.24609C250.914 1.63672 252.21 2.19661 253.316 2.92578C254.423 3.64193 255.296 4.50781 255.934 5.52344C256.585 6.52604 256.91 7.64583 256.91 8.88281C256.91 10.0286 256.643 11.1224 256.109 12.1641C255.576 13.1927 254.84 14.0977 253.902 14.8789C252.978 15.6602 251.891 16.2786 250.641 16.7344C249.404 17.1901 248.082 17.418 246.676 17.418C245.543 17.418 244.54 17.2812 243.668 17.0078C242.796 16.7214 242.066 16.3307 241.48 15.8359C240.895 15.3411 240.452 14.7617 240.152 14.0977C239.853 13.4336 239.703 12.7174 239.703 11.9492C239.703 11.3112 239.801 10.7318 239.996 10.2109C240.204 9.67708 240.426 9.22135 240.66 8.84375C240.908 8.46615 241.135 8.17318 241.344 7.96484C241.565 7.74349 241.689 7.61979 241.715 7.59375C241.78 7.52865 241.852 7.48958 241.93 7.47656C242.021 7.45052 242.105 7.4375 242.184 7.4375C242.392 7.4375 242.568 7.5026 242.711 7.63281C242.854 7.76302 242.926 7.93229 242.926 8.14062C242.926 8.375 242.841 8.57031 242.672 8.72656C242.646 8.73958 242.555 8.83073 242.398 9C242.242 9.15625 242.073 9.3776 241.891 9.66406C241.708 9.9375 241.539 10.2695 241.383 10.6602C241.24 11.0508 241.168 11.4805 241.168 11.9492C241.168 12.6914 241.331 13.3164 241.656 13.8242C241.995 14.332 242.431 14.7487 242.965 15.0742C243.499 15.3867 244.091 15.6146 244.742 15.7578C245.393 15.888 246.044 15.9531 246.695 15.9531C247.906 15.9531 249.039 15.7578 250.094 15.3672C251.161 14.9766 252.092 14.4557 252.887 13.8047C253.681 13.1536 254.306 12.4049 254.762 11.5586C255.217 10.7122 255.445 9.82682 255.445 8.90234C255.445 7.88672 255.159 6.96224 254.586 6.12891C254.013 5.28255 253.238 4.56641 252.262 3.98047C251.285 3.38151 250.139 2.91927 248.824 2.59375C247.522 2.26823 246.129 2.10547 244.645 2.10547C243.525 2.10547 242.346 2.24219 241.109 2.51562C239.885 2.77604 238.674 3.17318 237.477 3.70703C236.279 4.24089 235.133 4.90495 234.039 5.69922C232.958 6.49349 232.008 7.42448 231.188 8.49219C230.367 9.54688 229.71 10.7318 229.215 12.0469C228.733 13.362 228.492 14.8008 228.492 16.3633C228.492 17.7826 228.688 19.0651 229.078 20.2109C229.482 21.3568 230.035 22.3789 230.738 23.2773C231.441 24.1628 232.262 24.931 233.199 25.582C234.15 26.2331 235.165 26.7734 236.246 27.2031C237.34 27.6198 238.479 27.9323 239.664 28.1406C240.849 28.3359 242.027 28.4336 243.199 28.4336C244.762 28.4336 246.266 28.2188 247.711 27.7891C249.156 27.3464 250.491 26.7734 251.715 26.0703C252.952 25.3542 254.046 24.5534 254.996 23.668C255.947 22.7826 256.702 21.8906 257.262 20.9922C257.327 20.875 257.418 20.7904 257.535 20.7383C257.652 20.6732 257.776 20.6406 257.906 20.6406C258.128 20.6406 258.303 20.7188 258.434 20.875C258.564 21.0182 258.629 21.181 258.629 21.3633C258.629 21.4284 258.622 21.4935 258.609 21.5586C258.596 21.6237 258.57 21.6888 258.531 21.7539ZM269.566 26.8516C269.241 26.8516 268.954 26.8255 268.707 26.7734C268.512 27.1641 268.277 27.5286 268.004 27.8672C267.73 28.1927 267.411 28.4792 267.047 28.7266C266.695 28.974 266.298 29.1693 265.855 29.3125C265.413 29.4557 264.931 29.5273 264.41 29.5273C263.798 29.5273 263.238 29.4167 262.73 29.1953C262.223 28.987 261.78 28.694 261.402 28.3164C261.025 27.9258 260.732 27.4635 260.523 26.9297C260.315 26.3828 260.211 25.7839 260.211 25.1328C260.211 24.2995 260.361 23.5768 260.66 22.9648C260.96 22.3398 261.305 21.8255 261.695 21.4219C262.086 21.0052 262.477 20.6992 262.867 20.5039C263.258 20.2956 263.551 20.1914 263.746 20.1914C263.967 20.1914 264.13 20.25 264.234 20.3672C264.352 20.4844 264.41 20.6406 264.41 20.8359C264.41 21.0573 264.339 21.2266 264.195 21.3438C264.065 21.4479 263.896 21.5521 263.688 21.6562C263.479 21.7604 263.258 21.9102 263.023 22.1055C262.789 22.2878 262.568 22.5221 262.359 22.8086C262.164 23.0951 262.001 23.4336 261.871 23.8242C261.741 24.2148 261.676 24.651 261.676 25.1328C261.676 25.5625 261.741 25.9661 261.871 26.3438C262.001 26.7083 262.19 27.0273 262.438 27.3008C262.685 27.5612 262.978 27.7695 263.316 27.9258C263.655 28.069 264.033 28.1406 264.449 28.1406C265.191 28.1406 265.803 27.9714 266.285 27.6328C266.78 27.2812 267.158 26.8385 267.418 26.3047C266.65 25.901 266.018 25.3281 265.523 24.5859C265.029 23.8438 264.781 23.0104 264.781 22.0859C264.781 21.3438 264.957 20.7383 265.309 20.2695C265.673 19.8008 266.148 19.5664 266.734 19.5664C267.086 19.5664 267.418 19.651 267.73 19.8203C268.043 19.9896 268.316 20.2565 268.551 20.6211C268.798 20.9857 268.993 21.4544 269.137 22.0273C269.28 22.6003 269.352 23.2839 269.352 24.0781C269.352 24.4948 269.299 24.931 269.195 25.3867C269.273 25.3997 269.352 25.4062 269.43 25.4062C269.508 25.4062 269.592 25.4062 269.684 25.4062C270.126 25.4062 270.523 25.3542 270.875 25.25C271.227 25.1458 271.546 24.9896 271.832 24.7812C272.118 24.5729 272.372 24.306 272.594 23.9805C272.828 23.6549 273.049 23.2773 273.258 22.8477C273.297 22.7695 273.382 22.6979 273.512 22.6328C273.642 22.5547 273.772 22.5156 273.902 22.5156C274.072 22.5156 274.228 22.5872 274.371 22.7305C274.527 22.8607 274.605 23.0365 274.605 23.2578C274.605 23.362 274.579 23.4792 274.527 23.6094C274.475 23.7266 274.423 23.8372 274.371 23.9414C274.15 24.332 273.889 24.7096 273.59 25.0742C273.303 25.4258 272.958 25.7383 272.555 26.0117C272.164 26.2721 271.721 26.4805 271.227 26.6367C270.732 26.793 270.178 26.8646 269.566 26.8516ZM266.227 21.9297C266.227 22.1771 266.259 22.4375 266.324 22.7109C266.389 22.9844 266.487 23.2578 266.617 23.5312C266.76 23.7917 266.93 24.0456 267.125 24.293C267.333 24.5273 267.574 24.7292 267.848 24.8984C267.887 24.625 267.906 24.3581 267.906 24.0977C267.906 23.7461 267.88 23.388 267.828 23.0234C267.776 22.6589 267.698 22.3268 267.594 22.0273C267.503 21.7148 267.385 21.4674 267.242 21.2852C267.099 21.0898 266.93 20.9922 266.734 20.9922C266.656 20.9922 266.552 21.0508 266.422 21.168C266.292 21.2852 266.227 21.5391 266.227 21.9297ZM277.125 28.4336C277.125 28.7331 277.021 28.9805 276.812 29.1758C276.617 29.3841 276.37 29.4883 276.07 29.4883C275.771 29.4883 275.517 29.3841 275.309 29.1758C275.113 28.9805 275.016 28.7331 275.016 28.4336C275.016 28.1471 275.113 27.9062 275.309 27.7109C275.517 27.5026 275.771 27.3984 276.07 27.3984C276.37 27.3984 276.617 27.5026 276.812 27.7109C277.021 27.9062 277.125 28.1471 277.125 28.4336Z" fill="black"/>
</svg>
